<?xml version="1.0" encoding="utf-8"?>
<!-- Generator: Adobe Illustrator 27.5.0, SVG Export Plug-In . SVG Version: 6.00 Build 0)  -->
<svg version="1.1" xmlns="http://www.w3.org/2000/svg" xmlns:xlink="http://www.w3.org/1999/xlink" x="0px" y="0px"
	 viewBox="0 0 500 500" style="enable-background:new 0 0 500 500;" xml:space="preserve">
<g id="BACKGROUND">
	<radialGradient id="SVGID_1_" cx="243" cy="48" r="588.122" gradientUnits="userSpaceOnUse">
		<stop  offset="0" style="stop-color:#D1D3D4"/>
		<stop  offset="1" style="stop-color:#FFFFFF"/>
	</radialGradient>
	<rect style="fill:url(#SVGID_1_);" width="500" height="500"/>
</g>
<g id="OBJECTS">
	<g>
		<path style="fill:#231F20;" d="M472.503,231.419c0.016,0.367-5.154-12.816-30.65-17.615c0.002,0.044-9.493-1.936-22.688,2.421
			c-0.002-0.04-7.74,1.991-9.994,1.857c-0.002-0.036-6.678-6.626-10.278-10.118c-0.002-0.036,3.807,6.775,4.675,8.632
			c0.869,1.816,2.019,3.489,0.346,6.703c-0.001-0.026-2.584,5.896-3.217,7.021c-0.001-0.011,4.317-2.977,6.089-5.979
			c0.735-1.263,2.478-4.728,3.3-4.701c0.821,0.042,5.425,0.351,14.095,3.897C461.076,239.579,472.533,232.115,472.503,231.419z"/>
		<path style="fill:#231F20;" d="M415.538,187.17c0.005,0.111-4.464-8.257-26.998-7.095c0.001,0.036-8.392,0.268-20.114,5.589
			c-0.001-0.024-6.874,2.682-8.874,2.885c-0.001-0.02-5.889-4.182-9.069-6.475c-0.001-0.02,3.346,4.779,4.107,6.092
			c0.761,1.291,1.772,2.424,0.271,5.144c-0.001-0.021-2.323,4.929-2.891,5.889c0-0.006,3.846-2.904,5.433-5.477
			c0.659-1.083,2.224-4.007,2.952-4.101c0.729-0.091,4.811-0.477,12.475,0.866C405.433,196.739,415.554,187.531,415.538,187.17z"/>
		<path style="fill:#231F20;" d="M367.617,157.45c-0.004-0.067-4.45-6.893-31.713-5.708c0.003,0.08-10.147,0.13-24.811,5.336
			c-0.001-0.027-8.541,2.622-10.955,2.711c0.001,0.017-6.593-5.266-10.151-8.544c0.001,0.011,3.481,6.13,4.252,7.694
			c0.772,1.589,1.858,2.967-0.225,6.032c-0.001-0.032-3.292,5.61-4.063,6.716c-0.001-0.009,4.888-3.206,7.06-6.083
			c0.902-1.22,3.089-4.479,3.973-4.536c0.881-0.085,5.81-0.163,14.849,1.424C354.226,168.627,367.607,157.253,367.617,157.45z"/>
		<path style="fill:#231F20;" d="M371.112,220.409c0.005,0.112-4.001-8.996-26.491-5.843c0.001,0.027-8.369,1.026-20.305,8.118
			c-0.001-0.017-6.972,3.598-8.963,3.923c-0.001-0.015-5.589-4.707-8.601-7.356c0-0.014,3.03,5.608,3.709,7.124
			c0.679,1.5,1.615,2.807-0.025,6.068c0-0.012-2.576,5.855-3.189,6.968c0-0.003,3.967-3.49,5.683-6.593
			c0.714-1.294,2.43-4.823,3.158-4.976c0.727-0.149,4.789-0.783,12.317,0.328C360.417,233.259,371.12,220.599,371.112,220.409z"/>
		<path style="fill:#231F20;" d="M219.71,290.588c-0.003-0.068-3.939-7.581-26.35-2.622c-0.002-0.042-8.334,1.813-20.298,8.274
			c0.001,0.021-6.991,3.158-8.989,3.323c0.001,0.015-5.579-4.47-8.595-7.24c0.001,0.021,3.021,5.44,3.694,6.79
			c0.673,1.373,1.605,2.598-0.06,5.306c0.001,0.021-2.622,4.794-3.247,5.624c0.001,0.006,4.006-2.593,5.746-5.174
			c0.724-1.053,2.462-4.063,3.192-4.183c0.728-0.115,4.803-0.464,12.325,0.493C209.094,305.225,219.713,290.641,219.71,290.588z"/>
		<path style="fill:#231F20;" d="M114.122,303.907c-0.013-0.299-4.897-8.867-33.308-11.786c-0.002-0.045-10.568-1.193-25.783,0.898
			c0.002,0.039-8.892,0.438-11.439-0.489c0.002,0.06-7.133-9.243-11.001-14.97c0.001,0.029,3.884,9.257,4.749,11.505
			c0.867,2.294,2.061,4.483-0.044,7.311c0-0.01-3.308,5.309-4.094,6.239c0,0.002,5.08-1.606,7.28-4.208
			c0.916-1.081,3.116-4.209,4.045-3.953c0.925,0.204,6.123,2.149,15.683,6.951C100.75,319.878,114.088,303.131,114.122,303.907z"/>
		<path style="fill:#231F20;" d="M192.573,339.835c-0.001-0.03-3.679-6.175-24.975-4.19c-0.002-0.033-7.918,0.719-19.324,4.515
			c0.001,0.011-6.658,1.788-8.554,1.803c0.001,0.01-5.234-3.378-8.06-5.467c0.001,0.021,2.802,3.953,3.424,4.911
			c0.623,0.984,1.492,1.877-0.115,3.654c0,0.017-2.539,3.158-3.14,3.693c0,0,3.823-1.592,5.5-3.267
			c0.698-0.683,2.378-2.665,3.07-2.71c0.692-0.039,4.555-0.083,11.674,1.061C182.338,349.039,192.587,340.149,192.573,339.835z"/>
		<path style="fill:#231F20;" d="M285.875,263.91c0,0.004-2.287-4.928-15.14-1.553c0-0.006-4.78,1.195-11.612,5.833
			c0,0-3.994,2.347-5.137,2.569c0-0.002-3.208-2.636-4.938-4.172c0,0,1.742,3.278,2.132,4.144c0.391,0.865,0.928,1.614-0.014,3.526
			c0,0.002-1.477,3.397-1.83,4.023c0,0.002,2.278-2.033,3.263-3.858c0.409-0.754,1.391-2.847,1.809-2.956
			c0.418-0.11,2.747-0.563,7.061-0.18C279.806,273.022,285.878,263.966,285.875,263.91z"/>
		<path style="fill:#231F20;" d="M292.014,178.492c0.001,0.007-2.254-4.181-15.168-2.234c0.001,0.017-4.807,0.632-11.677,4.404
			c0-0.005-4.013,1.898-5.159,2.032c0,0.006-3.214-2.788-4.951-4.477c0,0.005,1.746,3.359,2.135,4.221
			c0.393,0.872,0.93,1.631-0.018,3.418c0-0.004-1.486,3.212-1.839,3.814c0-0.001,2.285-1.865,3.275-3.557
			c0.411-0.705,1.4-2.642,1.819-2.713c0.418-0.079,2.757-0.316,7.082,0.309C285.882,186.142,292.01,178.388,292.014,178.492z"/>
		<path style="fill:#231F20;" d="M65.134,232.397c-0.003-0.078-2.328-5.859-15.444-8.512c-0.001-0.03-4.877-1.011-11.872-0.083
			c0.001,0.017-4.09,0.136-5.262-0.318c0-0.001-3.287-4.458-5.06-6.962c0-0.004,1.784,4.225,2.183,5.305
			c0.4,1.078,0.951,2.137-0.016,3.457c0,0.006-1.519,2.451-1.882,2.841c0,0.005,2.341-0.606,3.351-1.832
			c0.42-0.5,1.428-1.997,1.857-1.869c0.427,0.126,2.816,1.037,7.232,3.765C58.987,239.731,65.131,232.322,65.134,232.397z"/>
		<path style="fill:#231F20;" d="M194.667,234.834c0-0.011-1.901-4.2-12.588-2.105c0-0.003-3.976,0.726-9.654,4.289
			c0,0.002-3.32,1.754-4.272,1.848c0,0.005-2.681-2.701-4.132-4.331c0.001,0.006,1.467,3.211,1.794,4.028
			c0.33,0.824,0.779,1.558,0.001,3.19c0,0.003-1.222,2.923-1.514,3.45c0,0.001,1.892-1.616,2.707-3.169
			c0.338-0.638,1.151-2.433,1.498-2.493c0.346-0.064,2.288-0.239,5.879,0.43C189.647,242.675,194.665,234.773,194.667,234.834z"/>
		<path style="fill:#231F20;" d="M159.697,322.254c-0.001-0.017-1.854-3.103-12.588-2.06c-0.001-0.009-3.992,0.358-9.73,2.532
			c0,0.005-3.351,1.039-4.307,1.047c0.001,0.004-2.651-1.996-4.083-3.197c0,0.004,1.427,2.287,1.742,2.861
			c0.319,0.582,0.761,1.106-0.043,2.174c0.001,0.004-1.265,1.907-1.565,2.244c0,0.002,1.92-0.978,2.758-1.986
			c0.348-0.415,1.187-1.592,1.536-1.616c0.349-0.025,2.297-0.037,5.889,0.61C154.566,327.576,159.697,322.254,159.697,322.254z"/>
		<path style="fill:#231F20;" d="M389.698,291.039c0.001,0.033-2.464-6.839-16.01-6.007c0.001,0.006-5.042,0.225-12.206,4.467
			c0-0.004-4.189,2.038-5.393,2.067c-0.001-0.009-3.41-4.115-5.248-6.408c-0.001-0.011,1.87,4.521,2.289,5.725
			c0.422,1.195,0.994,2.272,0.023,4.527c0-0.004-1.522,4.069-1.887,4.816c0,0,2.379-2.141,3.397-4.273
			c0.425-0.884,1.439-3.345,1.877-3.386c0.438-0.041,2.893-0.087,7.449,1.459C383.365,300.772,389.7,291.087,389.698,291.039z"/>
		<path style="fill:#231F20;" d="M425.661,262.907c0.002,0.047-1.942-5.141-12.757-5.967c0,0.011-4.026-0.38-9.753,2.053
			c-0.001-0.009-3.348,1.112-4.307,1.04c-0.001-0.006-2.707-3.28-4.167-5.124c0-0.006,1.479,3.471,1.81,4.381
			c0.333,0.91,0.786,1.742,0.006,3.312c0-0.004-1.224,2.861-1.516,3.386c0-0.002,1.902-1.399,2.72-2.872
			c0.34-0.613,1.156-2.324,1.505-2.318c0.35,0.007,2.306,0.176,5.936,1.685C420.563,268.975,425.663,262.948,425.661,262.907z"/>
		<path style="fill:#231F20;" d="M129.823,211.38c-0.003-0.056-3.852-10.126-25.213-9.65c-0.002-0.052-7.943,0.164-19.289,5.348
			c0.002,0.028-6.639,2.235-8.547,1.928c0,0.007-5.397-7.107-8.313-11.213c0.001,0.005,2.958,7.49,3.621,9.391
			c0.662,1.906,1.571,3.703,0.019,6.721c0.001,0.023-2.439,5.438-3.024,6.342c0,0.01,3.793-2.26,5.419-5.106
			c0.677-1.161,2.296-4.551,2.992-4.514c0.695,0.037,4.586,0.648,11.793,3.819C119.896,227.618,129.814,211.181,129.823,211.38z"/>
		<path style="fill:#231F20;" d="M362.589,267.451c0.003,0.08-4.065-10.453-26.537-6.883c0,0-8.359,1.214-20.268,8.938
			c0-0.006-6.961,3.843-8.955,4.117c-0.001-0.025-5.62-5.418-8.646-8.395c0-0.019,3.058,6.266,3.746,7.969
			c0.686,1.677,1.631,3.169,0.001,6.683c0-0.002-2.557,6.301-3.167,7.461c0,0.002,3.963-3.582,5.669-6.935
			c0.708-1.389,2.41-5.237,3.139-5.384c0.729-0.137,4.793-0.702,12.339,0.812C352.006,282.875,362.599,267.678,362.589,267.451z"/>
		<path style="fill:#231F20;" d="M306.006,199.442c0.001,0.023-3.42-6.525-22.912-2.439c0.001,0.025-7.255,1.383-17.615,7.876
			c-0.001-0.009-6.052,3.318-7.782,3.63c0.001,0.008-4.854-4.021-7.479-6.476c0.001,0.008,2.641,5.043,3.23,6.343
			c0.591,1.313,1.403,2.438-0.021,5.293c-0.001-0.005-2.238,5.109-2.771,6.07c0-0.001,3.447-3.086,4.938-5.8
			c0.62-1.13,2.11-4.225,2.743-4.374c0.63-0.159,4.16-0.752,10.688-0.16C296.755,211.677,306.002,199.339,306.006,199.442z"/>
		<path style="fill:#231F20;" d="M236.813,190.04c0.001,0.013-4.785-10.35-31.813-6.787c0.001,0.028-10.057,1.145-24.378,10.069
			c0-0.001-8.373,4.356-10.777,4.477c0.002,0.042-6.815-7.962-10.513-12.991c0.002,0.045,3.757,9.463,4.596,11.777
			c0.839,2.375,1.988,4.481,0.04,8.918c0.001,0.014-3.055,7.949-3.788,9.365c0,0.002,4.764-4.24,6.807-8.424
			c0.849-1.73,2.884-6.594,3.76-6.713c0.875-0.144,5.782-0.295,14.863,1.898C224.151,209.718,236.789,189.468,236.813,190.04z"/>
		<path style="fill:#231F20;" d="M150.25,258.953c-0.011-0.245-5.384-11.477-35.97-10.381c-0.004-0.106-11.37,0.441-27.707,5.972
			c0.002,0.066-9.555,2.166-12.299,1.49c0.002,0.044-7.709-9.635-11.883-15.449c0.002,0.026,4.207,10.025,5.145,12.493
			c0.939,2.5,2.234,4.883-0.026,8.419c0.002,0.033-3.553,6.41-4.403,7.442c0,0.018,5.48-2.236,7.842-5.562
			c0.983-1.349,3.34-5.359,4.34-5.228c0.998,0.107,6.593,1.455,16.909,5.793C135.972,280.952,150.221,258.282,150.25,258.953z"/>
		<path style="fill:#231F20;" d="M245.22,253.382c-0.001-0.031-3.804-7.674-25.314-1.98c-0.001-0.017-8.001,2.044-19.45,9.514
			c0.001,0.01-6.691,3.736-8.607,4.031c0.001,0.013-5.377-4.583-8.285-7.426c0.001,0.02,2.927,5.75,3.581,7.195
			c0.654,1.468,1.556,2.754-0.024,5.836c0.001,0.013-2.485,5.469-3.077,6.447c0,0.004,3.823-3.152,5.476-6.092
			c0.688-1.21,2.337-4.606,3.037-4.77c0.698-0.165,4.605-0.758,11.827-0.07C235.069,268.808,245.217,253.324,245.22,253.382z"/>
		<path style="fill:#231F20;" d="M97.103,334.214c-0.002-0.044-2.762-4.503-18.89-5.398c0.001,0.012-6.001-0.435-14.617,1.653
			c0,0-5.029,0.886-6.465,0.675c0.001,0.025-4.004-4.031-6.173-6.563c0,0.019,2.169,4.352,2.651,5.406
			c0.484,1.082,1.152,2.075-0.044,3.733c0-0.007-1.88,3.051-2.326,3.608c0-0.004,2.869-1.365,4.12-2.898
			c0.519-0.643,1.77-2.442,2.294-2.393c0.523,0.03,3.452,0.512,8.849,2.306C89.408,341.301,97.092,333.978,97.103,334.214z"/>
		<path style="fill:#231F20;" d="M313.034,310.612c-0.002-0.043-5.447-12.725-33.458-6.501c-0.003-0.076-10.419,2.305-25.122,11.398
			c0.001,0.028-8.623,4.431-11.123,4.698c-0.002-0.035-7.238-5.877-11.142-9.079c-0.001-0.015,4.049,6.803,4.966,8.632
			c0.914,1.802,2.15,3.439,0.205,7.145c0.001,0.031-3.033,6.555-3.771,7.682c0.001,0.015,4.889-3.514,6.934-7.076
			c0.851-1.454,2.875-5.604,3.784-5.774c0.911-0.142,6.008-0.791,15.536,0.854C300.397,330.997,313.058,311.151,313.034,310.612z"/>
	</g>
</g>
<g id="DESIGNED_BY_FREEPIK">
	<g>
		<g>
			<g>
				<path style="fill:#818C9C;" d="M180.342,482.34v-0.159c-0.219,0.248-0.434,0.451-0.645,0.606
					c-0.211,0.157-0.441,0.276-0.689,0.356c-0.246,0.083-0.516,0.122-0.809,0.122c-0.389,0-0.748-0.082-1.078-0.245
					c-0.33-0.165-0.615-0.399-0.855-0.704c-0.242-0.305-0.426-0.662-0.551-1.073c-0.123-0.412-0.186-0.857-0.186-1.335
					c0-1.013,0.246-1.803,0.74-2.368c0.496-0.564,1.146-0.849,1.953-0.849c0.467,0,0.861,0.081,1.182,0.24
					c0.32,0.16,0.633,0.408,0.938,0.738v-2.391c0-0.332,0.064-0.583,0.197-0.753c0.133-0.171,0.322-0.255,0.568-0.255
					c0.244,0,0.434,0.078,0.566,0.233c0.131,0.157,0.199,0.387,0.199,0.691v7.144c0,0.31-0.072,0.541-0.215,0.694
					c-0.143,0.154-0.326,0.231-0.551,0.231c-0.223,0-0.406-0.08-0.551-0.239C180.412,482.865,180.342,482.637,180.342,482.34z
					 M177.154,479.962c0,0.438,0.068,0.811,0.205,1.121c0.137,0.308,0.322,0.54,0.561,0.696c0.238,0.157,0.496,0.235,0.777,0.235
					c0.285,0,0.545-0.075,0.781-0.223c0.234-0.147,0.422-0.376,0.563-0.683c0.141-0.306,0.211-0.69,0.211-1.147
					c0-0.432-0.07-0.803-0.211-1.114c-0.141-0.31-0.33-0.547-0.568-0.712c-0.24-0.164-0.502-0.245-0.787-0.245
					c-0.297,0-0.563,0.084-0.795,0.252c-0.234,0.168-0.414,0.408-0.543,0.724C177.219,479.181,177.154,479.546,177.154,479.962z"/>
				<path style="fill:#818C9C;" d="M187.484,480.371h-3.168c0.004,0.367,0.076,0.691,0.223,0.973
					c0.143,0.281,0.336,0.492,0.574,0.635c0.24,0.143,0.504,0.214,0.793,0.214c0.193,0,0.371-0.023,0.529-0.068
					c0.162-0.046,0.316-0.115,0.467-0.214c0.15-0.096,0.289-0.2,0.416-0.312c0.127-0.111,0.289-0.262,0.492-0.451
					c0.084-0.071,0.201-0.107,0.357-0.107c0.164,0,0.299,0.047,0.4,0.138c0.104,0.092,0.156,0.219,0.156,0.386
					c0,0.146-0.057,0.316-0.172,0.513c-0.115,0.195-0.289,0.384-0.52,0.563c-0.232,0.18-0.521,0.329-0.873,0.448
					c-0.35,0.119-0.752,0.178-1.207,0.178c-1.039,0-1.85-0.297-2.426-0.891c-0.578-0.592-0.867-1.397-0.867-2.413
					c0-0.48,0.07-0.924,0.213-1.333c0.145-0.41,0.352-0.761,0.623-1.053c0.273-0.293,0.609-0.518,1.01-0.674
					c0.398-0.156,0.842-0.233,1.328-0.233c0.633,0,1.176,0.132,1.629,0.4c0.453,0.267,0.793,0.611,1.018,1.034
					c0.227,0.424,0.34,0.856,0.34,1.293c0,0.408-0.117,0.672-0.352,0.793C188.236,480.31,187.908,480.371,187.484,480.371z
					 M184.316,479.451h2.938c-0.039-0.554-0.189-0.969-0.449-1.243c-0.26-0.275-0.6-0.413-1.023-0.413
					c-0.404,0-0.734,0.14-0.994,0.419C184.529,478.492,184.371,478.905,184.316,479.451z"/>
				<path style="fill:#818C9C;" d="M194.865,481.147c0,0.447-0.109,0.83-0.326,1.148c-0.219,0.318-0.539,0.56-0.965,0.725
					c-0.426,0.163-0.941,0.245-1.553,0.245c-0.58,0-1.078-0.088-1.494-0.268c-0.414-0.177-0.723-0.4-0.92-0.666
					c-0.197-0.267-0.297-0.535-0.297-0.805c0-0.178,0.063-0.33,0.191-0.457c0.125-0.125,0.287-0.189,0.48-0.189
					c0.17,0,0.299,0.042,0.391,0.125c0.092,0.083,0.178,0.2,0.262,0.35c0.166,0.29,0.365,0.504,0.596,0.647
					c0.232,0.142,0.547,0.213,0.947,0.213c0.324,0,0.59-0.072,0.797-0.216c0.209-0.146,0.313-0.31,0.313-0.497
					c0-0.284-0.107-0.491-0.324-0.622c-0.215-0.13-0.57-0.256-1.064-0.374c-0.559-0.138-1.012-0.283-1.361-0.436
					c-0.352-0.151-0.631-0.353-0.84-0.602c-0.211-0.249-0.314-0.557-0.314-0.92c0-0.324,0.096-0.631,0.291-0.92
					c0.193-0.287,0.48-0.518,0.857-0.69c0.377-0.173,0.832-0.259,1.367-0.259c0.42,0,0.797,0.043,1.129,0.131
					c0.336,0.087,0.615,0.203,0.838,0.35c0.225,0.146,0.393,0.309,0.51,0.486c0.117,0.178,0.176,0.351,0.176,0.523
					c0,0.186-0.063,0.338-0.188,0.456c-0.123,0.118-0.301,0.178-0.531,0.178c-0.166,0-0.307-0.047-0.424-0.143
					c-0.117-0.095-0.25-0.236-0.4-0.427c-0.123-0.158-0.266-0.284-0.432-0.38c-0.168-0.095-0.393-0.143-0.678-0.143
					c-0.293,0-0.537,0.063-0.73,0.188c-0.193,0.124-0.289,0.279-0.289,0.465c0,0.172,0.07,0.311,0.211,0.419
					c0.145,0.109,0.336,0.2,0.578,0.271c0.24,0.071,0.572,0.157,0.996,0.26c0.502,0.124,0.912,0.271,1.23,0.439
					c0.318,0.17,0.561,0.371,0.725,0.604C194.783,480.588,194.865,480.851,194.865,481.147z"/>
				<path style="fill:#818C9C;" d="M196.52,475.927c-0.225,0-0.418-0.069-0.578-0.208c-0.16-0.138-0.24-0.334-0.24-0.588
					c0-0.23,0.082-0.417,0.246-0.566c0.164-0.149,0.355-0.223,0.572-0.223c0.211,0,0.396,0.067,0.559,0.202
					c0.162,0.135,0.242,0.33,0.242,0.587c0,0.25-0.08,0.444-0.236,0.585C196.926,475.855,196.738,475.927,196.52,475.927z
					 M197.32,477.6v4.681c0,0.325-0.076,0.57-0.23,0.737c-0.154,0.165-0.35,0.248-0.588,0.248c-0.238,0-0.43-0.085-0.578-0.255
					c-0.15-0.17-0.223-0.414-0.223-0.73v-4.634c0-0.319,0.072-0.561,0.223-0.724c0.148-0.162,0.34-0.243,0.578-0.243
					c0.238,0,0.434,0.081,0.588,0.243C197.244,477.086,197.32,477.31,197.32,477.6z"/>
				<path style="fill:#818C9C;" d="M204.416,477.866v4.705c0,0.538-0.057,1.002-0.172,1.39c-0.113,0.387-0.299,0.708-0.551,0.961
					c-0.254,0.253-0.586,0.441-0.994,0.563c-0.41,0.124-0.92,0.185-1.527,0.185c-0.559,0-1.057-0.078-1.496-0.233
					c-0.438-0.157-0.777-0.359-1.014-0.606c-0.238-0.246-0.357-0.501-0.357-0.763c0-0.196,0.068-0.358,0.203-0.483
					c0.133-0.124,0.297-0.186,0.486-0.186c0.236,0,0.443,0.105,0.623,0.314c0.086,0.107,0.176,0.215,0.27,0.323
					c0.092,0.109,0.195,0.202,0.309,0.279c0.111,0.076,0.248,0.135,0.406,0.173c0.158,0.036,0.34,0.055,0.545,0.055
					c0.42,0,0.746-0.057,0.977-0.175c0.232-0.116,0.395-0.279,0.486-0.49c0.094-0.208,0.148-0.433,0.164-0.672
					c0.016-0.24,0.027-0.624,0.035-1.155c-0.25,0.349-0.537,0.615-0.863,0.797s-0.715,0.271-1.166,0.271
					c-0.541,0-1.016-0.138-1.422-0.414c-0.404-0.278-0.717-0.665-0.934-1.164c-0.217-0.499-0.326-1.073-0.326-1.726
					c0-0.487,0.066-0.927,0.199-1.317c0.133-0.393,0.32-0.723,0.566-0.991c0.244-0.27,0.527-0.472,0.848-0.608
					c0.32-0.137,0.672-0.205,1.057-0.205c0.459,0,0.855,0.089,1.193,0.264c0.336,0.177,0.648,0.453,0.938,0.828v-0.22
					c0-0.28,0.068-0.498,0.207-0.653c0.139-0.152,0.316-0.23,0.533-0.23c0.313,0,0.521,0.103,0.623,0.306
					C204.365,477.19,204.416,477.483,204.416,477.866z M199.723,479.92c0,0.656,0.144,1.152,0.432,1.489
					c0.287,0.337,0.656,0.504,1.111,0.504c0.27,0,0.523-0.072,0.762-0.217c0.24-0.145,0.436-0.362,0.586-0.652
					c0.15-0.291,0.225-0.644,0.225-1.059c0-0.66-0.145-1.176-0.436-1.543c-0.291-0.368-0.674-0.552-1.148-0.552
					c-0.463,0-0.834,0.177-1.113,0.528C199.863,478.77,199.723,479.272,199.723,479.92z"/>
				<path style="fill:#818C9C;" d="M206.99,477.576v0.195c0.285-0.376,0.598-0.651,0.936-0.828c0.338-0.176,0.727-0.264,1.166-0.264
					c0.428,0,0.809,0.093,1.145,0.279c0.336,0.186,0.588,0.449,0.754,0.788c0.108,0.198,0.176,0.412,0.207,0.642
					c0.031,0.23,0.049,0.521,0.049,0.879v3.013c0,0.325-0.074,0.57-0.225,0.737c-0.146,0.165-0.34,0.248-0.578,0.248
					c-0.24,0-0.436-0.085-0.586-0.255c-0.152-0.17-0.227-0.414-0.227-0.73v-2.699c0-0.533-0.074-0.942-0.223-1.225
					c-0.148-0.283-0.443-0.426-0.887-0.426c-0.289,0-0.551,0.087-0.789,0.259c-0.236,0.173-0.412,0.409-0.521,0.71
					c-0.08,0.241-0.119,0.691-0.119,1.353v2.028c0,0.328-0.076,0.575-0.229,0.74c-0.15,0.163-0.35,0.245-0.59,0.245
					c-0.234,0-0.426-0.085-0.576-0.255c-0.15-0.17-0.225-0.414-0.225-0.73V477.6c0-0.309,0.066-0.539,0.201-0.692
					c0.135-0.151,0.318-0.228,0.551-0.228c0.143,0,0.271,0.034,0.387,0.102c0.115,0.067,0.207,0.168,0.275,0.302
					C206.957,477.218,206.99,477.382,206.99,477.576z"/>
				<path style="fill:#818C9C;" d="M216.846,480.371h-3.168c0.004,0.367,0.078,0.691,0.223,0.973
					c0.145,0.281,0.336,0.492,0.576,0.635c0.238,0.143,0.502,0.214,0.791,0.214c0.193,0,0.371-0.023,0.531-0.068
					c0.16-0.046,0.314-0.115,0.467-0.214c0.148-0.096,0.287-0.2,0.414-0.312c0.127-0.111,0.291-0.262,0.492-0.451
					c0.084-0.071,0.203-0.107,0.357-0.107c0.164,0,0.301,0.047,0.402,0.138c0.104,0.092,0.154,0.219,0.154,0.386
					c0,0.146-0.057,0.316-0.172,0.513c-0.115,0.195-0.289,0.384-0.52,0.563c-0.23,0.18-0.521,0.329-0.871,0.448
					c-0.35,0.119-0.754,0.178-1.209,0.178c-1.039,0-1.85-0.297-2.426-0.891c-0.578-0.592-0.867-1.397-0.867-2.413
					c0-0.48,0.072-0.924,0.215-1.333c0.143-0.41,0.35-0.761,0.623-1.053c0.271-0.293,0.607-0.518,1.008-0.674
					c0.4-0.156,0.842-0.233,1.33-0.233c0.633,0,1.174,0.132,1.627,0.4c0.453,0.267,0.793,0.611,1.02,1.034
					c0.225,0.424,0.338,0.856,0.338,1.293c0,0.408-0.117,0.672-0.352,0.793C217.598,480.31,217.27,480.371,216.846,480.371z
					 M213.678,479.451h2.938c-0.039-0.554-0.189-0.969-0.449-1.243c-0.258-0.275-0.6-0.413-1.023-0.413
					c-0.404,0-0.734,0.14-0.994,0.419C213.891,478.492,213.732,478.905,213.678,479.451z"/>
				<path style="fill:#818C9C;" d="M223.449,482.34v-0.159c-0.219,0.248-0.432,0.451-0.645,0.606
					c-0.211,0.157-0.439,0.276-0.688,0.356c-0.248,0.083-0.518,0.122-0.811,0.122c-0.387,0-0.746-0.082-1.076-0.245
					c-0.33-0.165-0.617-0.399-0.857-0.704c-0.24-0.305-0.424-0.662-0.549-1.073c-0.125-0.412-0.188-0.857-0.188-1.335
					c0-1.013,0.248-1.803,0.742-2.368c0.494-0.564,1.145-0.849,1.951-0.849c0.467,0,0.861,0.081,1.182,0.24
					c0.32,0.16,0.633,0.408,0.938,0.738v-2.391c0-0.332,0.066-0.583,0.199-0.753c0.133-0.171,0.32-0.255,0.566-0.255
					c0.244,0,0.434,0.078,0.566,0.233c0.133,0.157,0.199,0.387,0.199,0.691v7.144c0,0.31-0.072,0.541-0.215,0.694
					c-0.143,0.154-0.324,0.231-0.551,0.231c-0.221,0-0.404-0.08-0.549-0.239C223.521,482.865,223.449,482.637,223.449,482.34z
					 M220.264,479.962c0,0.438,0.068,0.811,0.203,1.121c0.137,0.308,0.324,0.54,0.563,0.696c0.236,0.157,0.494,0.235,0.775,0.235
					c0.285,0,0.545-0.075,0.781-0.223c0.234-0.147,0.424-0.376,0.564-0.683c0.141-0.306,0.209-0.69,0.209-1.147
					c0-0.432-0.068-0.803-0.209-1.114c-0.141-0.31-0.332-0.547-0.57-0.712c-0.24-0.164-0.502-0.245-0.787-0.245
					c-0.295,0-0.561,0.084-0.795,0.252c-0.232,0.168-0.414,0.408-0.543,0.724C220.326,479.181,220.264,479.546,220.264,479.962z"/>
				<path style="fill:#818C9C;" d="M230.07,475.196v2.474c0.303-0.315,0.613-0.559,0.932-0.727c0.314-0.167,0.707-0.252,1.174-0.252
					c0.539,0,1.01,0.128,1.416,0.383c0.404,0.256,0.719,0.626,0.943,1.109c0.223,0.484,0.336,1.06,0.336,1.725
					c0,0.49-0.063,0.939-0.188,1.35c-0.125,0.409-0.307,0.764-0.543,1.064c-0.238,0.301-0.525,0.533-0.863,0.698
					c-0.338,0.163-0.711,0.245-1.119,0.245c-0.25,0-0.482-0.029-0.703-0.088c-0.219-0.061-0.406-0.138-0.561-0.235
					c-0.154-0.096-0.285-0.196-0.395-0.3c-0.109-0.102-0.252-0.257-0.43-0.462v0.159c0,0.305-0.074,0.536-0.221,0.693
					c-0.145,0.155-0.332,0.232-0.557,0.232c-0.23,0-0.412-0.077-0.549-0.232c-0.137-0.157-0.205-0.389-0.205-0.693v-7.073
					c0-0.328,0.066-0.576,0.197-0.743c0.133-0.169,0.318-0.252,0.557-0.252c0.25,0,0.439,0.08,0.574,0.239
					C230.002,474.672,230.07,474.899,230.07,475.196z M230.146,480.009c0,0.646,0.148,1.14,0.441,1.485
					c0.295,0.347,0.682,0.52,1.162,0.52c0.406,0,0.758-0.177,1.053-0.531c0.293-0.354,0.441-0.861,0.441-1.521
					c0-0.428-0.061-0.796-0.184-1.105c-0.123-0.309-0.297-0.547-0.521-0.715c-0.227-0.168-0.49-0.252-0.789-0.252
					c-0.309,0-0.586,0.084-0.826,0.252c-0.24,0.168-0.43,0.411-0.57,0.73C230.217,479.19,230.146,479.569,230.146,480.009z"/>
				<path style="fill:#818C9C;" d="M236.971,483.469l0.148-0.363l-1.994-5.02c-0.123-0.288-0.184-0.498-0.184-0.63
					c0-0.138,0.035-0.266,0.105-0.384c0.072-0.119,0.17-0.214,0.295-0.285c0.123-0.072,0.254-0.107,0.389-0.107
					c0.232,0,0.408,0.075,0.527,0.223c0.119,0.148,0.223,0.36,0.314,0.638l1.371,3.987l1.299-3.709
					c0.104-0.299,0.197-0.535,0.279-0.705c0.082-0.171,0.17-0.285,0.264-0.344c0.092-0.06,0.225-0.09,0.395-0.09
					c0.125,0,0.24,0.032,0.354,0.099c0.113,0.065,0.199,0.153,0.262,0.264c0.061,0.11,0.092,0.228,0.092,0.35
					c-0.018,0.075-0.041,0.182-0.078,0.32c-0.035,0.139-0.078,0.28-0.129,0.422l-2.113,5.529c-0.182,0.487-0.359,0.868-0.535,1.146
					c-0.174,0.276-0.404,0.49-0.689,0.638c-0.287,0.148-0.674,0.223-1.16,0.223c-0.475,0-0.832-0.051-1.068-0.154
					c-0.238-0.103-0.355-0.291-0.355-0.563c0-0.186,0.055-0.329,0.168-0.43c0.113-0.102,0.279-0.152,0.5-0.152
					c0.088,0,0.174,0.012,0.258,0.036c0.102,0.023,0.191,0.036,0.266,0.036c0.186,0,0.332-0.027,0.439-0.084
					c0.107-0.055,0.201-0.151,0.287-0.288C236.762,483.935,236.859,483.732,236.971,483.469z"/>
			</g>
			<g>
				<path style="fill:#818C9C;" d="M260.435,476.82h0.385v-0.486c0-0.509,0.065-0.91,0.193-1.211
					c0.127-0.298,0.346-0.516,0.652-0.652c0.307-0.136,0.727-0.204,1.26-0.204c0.949,0,1.42,0.23,1.42,0.696
					c0,0.149-0.049,0.277-0.148,0.384c-0.098,0.105-0.215,0.16-0.35,0.16c-0.063,0-0.174-0.012-0.33-0.037
					c-0.148-0.021-0.281-0.034-0.389-0.034c-0.291,0-0.479,0.087-0.564,0.259c-0.08,0.172-0.123,0.418-0.123,0.739v0.387h0.396
					c0.617,0,0.924,0.186,0.924,0.559c0,0.262-0.078,0.433-0.246,0.504c-0.162,0.071-0.389,0.106-0.678,0.106h-0.396v4.292
					c0,0.318-0.076,0.563-0.23,0.729c-0.152,0.17-0.346,0.254-0.59,0.254c-0.228,0-0.418-0.084-0.572-0.254
					c-0.152-0.167-0.229-0.411-0.229-0.729v-4.292h-0.445c-0.244,0-0.426-0.053-0.559-0.164c-0.131-0.106-0.195-0.249-0.195-0.423
					C259.621,477.013,259.893,476.82,260.435,476.82"/>
				<path style="fill:#818C9C;" d="M265.738,480.927v1.355c0,0.327-0.082,0.574-0.234,0.737c-0.154,0.165-0.348,0.246-0.586,0.246
					c-0.236,0-0.428-0.082-0.578-0.25c-0.146-0.165-0.225-0.41-0.225-0.733v-4.512c0-0.729,0.262-1.093,0.787-1.093
					c0.272,0,0.465,0.084,0.584,0.255c0.117,0.171,0.184,0.421,0.197,0.755c0.193-0.334,0.391-0.584,0.594-0.755
					c0.207-0.171,0.475-0.255,0.816-0.255c0.344,0,0.67,0.084,0.99,0.255c0.322,0.171,0.482,0.397,0.482,0.678
					c0,0.196-0.07,0.362-0.203,0.488c-0.139,0.13-0.285,0.194-0.441,0.194c-0.063,0-0.207-0.038-0.432-0.111
					c-0.229-0.072-0.432-0.108-0.602-0.108c-0.238,0-0.434,0.063-0.582,0.186c-0.152,0.128-0.271,0.311-0.353,0.554
					c-0.08,0.246-0.137,0.54-0.172,0.877C265.752,480.027,265.738,480.441,265.738,480.927"/>
				<path style="fill:#818C9C;" d="M273.184,480.369h-3.17c0.006,0.367,0.078,0.693,0.223,0.974
					c0.146,0.279,0.336,0.491,0.576,0.635c0.242,0.144,0.504,0.213,0.795,0.213c0.193,0,0.369-0.021,0.529-0.069
					c0.16-0.043,0.315-0.116,0.465-0.214c0.152-0.095,0.289-0.198,0.416-0.311c0.125-0.109,0.291-0.26,0.492-0.449
					c0.086-0.071,0.203-0.108,0.357-0.108c0.166,0,0.299,0.046,0.404,0.138c0.104,0.093,0.152,0.22,0.152,0.387
					c0,0.147-0.057,0.316-0.168,0.512c-0.117,0.197-0.289,0.385-0.521,0.565c-0.234,0.178-0.523,0.33-0.873,0.446
					c-0.35,0.119-0.754,0.179-1.207,0.179c-1.043,0-1.852-0.295-2.428-0.889c-0.578-0.594-0.869-1.4-0.869-2.416
					c0-0.479,0.074-0.924,0.217-1.334c0.141-0.41,0.348-0.76,0.625-1.054c0.272-0.294,0.605-0.518,1.006-0.673
					c0.398-0.156,0.842-0.234,1.33-0.234c0.631,0,1.174,0.133,1.629,0.403c0.451,0.265,0.795,0.609,1.017,1.033
					c0.225,0.426,0.338,0.854,0.338,1.296c0,0.405-0.117,0.669-0.352,0.79C273.935,480.309,273.607,480.369,273.184,480.369
					 M270.014,479.448h2.938c-0.039-0.553-0.186-0.969-0.445-1.241c-0.262-0.276-0.6-0.412-1.025-0.412
					c-0.404,0-0.736,0.137-0.994,0.418C270.227,478.491,270.068,478.903,270.014,479.448"/>
				<path style="fill:#818C9C;" d="M279.924,480.369h-3.17c0.004,0.367,0.078,0.693,0.221,0.974
					c0.145,0.279,0.338,0.491,0.576,0.635c0.24,0.144,0.504,0.213,0.795,0.213c0.191,0,0.369-0.021,0.525-0.069
					c0.164-0.043,0.318-0.116,0.471-0.214c0.15-0.095,0.287-0.198,0.414-0.311c0.125-0.109,0.291-0.26,0.494-0.449
					c0.082-0.071,0.203-0.108,0.353-0.108c0.168,0,0.303,0.046,0.406,0.138c0.103,0.093,0.15,0.22,0.15,0.387
					c0,0.147-0.055,0.316-0.172,0.512c-0.109,0.197-0.283,0.385-0.518,0.565c-0.232,0.178-0.525,0.33-0.873,0.446
					c-0.348,0.119-0.754,0.179-1.207,0.179c-1.043,0-1.85-0.295-2.428-0.889c-0.578-0.594-0.867-1.4-0.867-2.416
					c0-0.479,0.07-0.924,0.217-1.334c0.141-0.41,0.348-0.76,0.621-1.054c0.271-0.294,0.607-0.518,1.008-0.673
					c0.398-0.156,0.846-0.234,1.33-0.234c0.633,0,1.174,0.133,1.633,0.403c0.451,0.265,0.791,0.609,1.014,1.033
					c0.225,0.426,0.34,0.854,0.34,1.296c0,0.405-0.119,0.669-0.35,0.79C280.674,480.309,280.346,480.369,279.924,480.369
					 M276.754,479.448h2.938c-0.041-0.553-0.191-0.969-0.447-1.241c-0.264-0.276-0.602-0.412-1.025-0.412
					c-0.404,0-0.734,0.137-0.996,0.418C276.965,478.491,276.807,478.903,276.754,479.448"/>
				<path style="fill:#818C9C;" d="M283.471,477.588v0.193c0.305-0.374,0.621-0.65,0.953-0.826c0.324-0.178,0.697-0.268,1.113-0.268
					c0.496,0,0.959,0.131,1.379,0.387c0.42,0.259,0.748,0.634,0.992,1.128c0.244,0.496,0.367,1.08,0.367,1.758
					c0,0.497-0.07,0.956-0.211,1.375c-0.141,0.418-0.334,0.767-0.58,1.049c-0.246,0.282-0.535,0.502-0.867,0.653
					c-0.34,0.151-0.695,0.227-1.08,0.227c-0.461,0-0.852-0.093-1.166-0.279c-0.313-0.183-0.613-0.459-0.9-0.816v2.432
					c0,0.709-0.26,1.068-0.777,1.068c-0.307,0-0.506-0.092-0.605-0.274c-0.096-0.186-0.146-0.452-0.146-0.807v-6.992
					c0-0.311,0.066-0.538,0.199-0.692c0.135-0.149,0.32-0.228,0.553-0.228c0.23,0,0.416,0.078,0.561,0.233
					C283.4,477.069,283.471,477.292,283.471,477.588 M286.646,479.941c0-0.428-0.064-0.795-0.195-1.102
					c-0.131-0.307-0.313-0.541-0.541-0.704c-0.229-0.164-0.488-0.247-0.77-0.247c-0.447,0-0.824,0.178-1.129,0.526
					c-0.309,0.354-0.465,0.872-0.465,1.558c0,0.642,0.154,1.146,0.461,1.503c0.305,0.358,0.678,0.536,1.133,0.536
					c0.268,0,0.518-0.078,0.748-0.231c0.232-0.158,0.414-0.392,0.551-0.705C286.578,480.763,286.646,480.384,286.646,479.941"/>
				<path style="fill:#818C9C;" d="M289.906,475.922c-0.227,0-0.418-0.071-0.576-0.209c-0.164-0.139-0.242-0.332-0.242-0.585
					c0-0.229,0.082-0.418,0.248-0.568c0.162-0.147,0.354-0.222,0.57-0.222c0.213,0,0.396,0.066,0.559,0.199
					c0.16,0.137,0.242,0.333,0.242,0.591c0,0.249-0.078,0.444-0.234,0.585C290.314,475.851,290.125,475.922,289.906,475.922
					 M290.707,477.597v4.685c0,0.322-0.076,0.567-0.23,0.732c-0.154,0.168-0.35,0.25-0.588,0.25s-0.428-0.084-0.58-0.254
					c-0.147-0.172-0.221-0.415-0.221-0.729v-4.641c0-0.317,0.074-0.558,0.221-0.721c0.152-0.165,0.342-0.244,0.58-0.244
					s0.434,0.079,0.588,0.244C290.631,477.084,290.707,477.31,290.707,477.597"/>
				<path style="fill:#818C9C;" d="M295.93,482.525l-1.426-2.352l-0.879,0.83v1.29c0,0.311-0.084,0.551-0.248,0.718
					c-0.162,0.17-0.356,0.254-0.567,0.254c-0.25,0-0.447-0.082-0.59-0.25c-0.141-0.165-0.213-0.41-0.213-0.733v-6.911
					c0-0.358,0.07-0.632,0.207-0.821c0.139-0.19,0.34-0.282,0.596-0.282c0.248,0,0.445,0.085,0.592,0.257
					c0.147,0.169,0.223,0.421,0.223,0.751v3.931l1.82-1.912c0.227-0.235,0.395-0.4,0.518-0.486c0.117-0.086,0.262-0.13,0.43-0.13
					c0.203,0,0.371,0.064,0.51,0.192c0.131,0.129,0.201,0.291,0.201,0.483c0,0.237-0.221,0.556-0.66,0.95l-0.859,0.79l1.66,2.612
					c0.121,0.196,0.213,0.34,0.264,0.441c0.053,0.099,0.082,0.198,0.082,0.288c0,0.258-0.072,0.458-0.213,0.609
					c-0.141,0.147-0.326,0.221-0.553,0.221c-0.197,0-0.352-0.05-0.459-0.159C296.26,482.996,296.111,482.803,295.93,482.525"/>
				<path style="fill:#818C9C;" d="M299.451,483.265c-0.244,0-0.455-0.079-0.633-0.237c-0.18-0.156-0.27-0.379-0.27-0.665
					c0-0.241,0.088-0.449,0.258-0.622c0.172-0.174,0.379-0.262,0.629-0.262s0.461,0.088,0.639,0.258
					c0.176,0.171,0.264,0.383,0.264,0.626c0,0.282-0.088,0.504-0.264,0.662C299.896,483.185,299.688,483.265,299.451,483.265"/>
				<path style="fill:#818C9C;" d="M307.51,481.26c0,0.2-0.061,0.417-0.182,0.646c-0.119,0.231-0.305,0.448-0.555,0.655
					c-0.246,0.208-0.557,0.377-0.934,0.503c-0.375,0.126-0.801,0.191-1.267,0.191c-1.004,0-1.785-0.294-2.35-0.876
					c-0.557-0.584-0.84-1.367-0.84-2.348c0-0.667,0.129-1.254,0.387-1.765c0.256-0.509,0.627-0.904,1.113-1.183
					c0.486-0.281,1.072-0.419,1.746-0.419c0.42,0,0.803,0.061,1.156,0.185c0.35,0.122,0.646,0.281,0.891,0.474
					c0.242,0.197,0.428,0.402,0.555,0.62c0.129,0.22,0.193,0.425,0.193,0.616c0,0.192-0.07,0.356-0.215,0.492
					c-0.147,0.134-0.322,0.202-0.524,0.202c-0.137,0-0.248-0.035-0.338-0.104c-0.09-0.07-0.191-0.181-0.299-0.339
					c-0.199-0.299-0.404-0.525-0.623-0.674c-0.215-0.151-0.486-0.227-0.82-0.227c-0.477,0-0.863,0.187-1.158,0.562
					c-0.291,0.371-0.44,0.886-0.44,1.533c0,0.304,0.039,0.586,0.115,0.841c0.074,0.254,0.182,0.472,0.324,0.653
					c0.145,0.179,0.314,0.315,0.516,0.407c0.203,0.097,0.426,0.142,0.666,0.142c0.324,0,0.603-0.074,0.834-0.225
					c0.236-0.151,0.439-0.38,0.615-0.689c0.1-0.182,0.207-0.323,0.32-0.427c0.113-0.102,0.254-0.155,0.422-0.155
					c0.197,0,0.361,0.076,0.49,0.226C307.441,480.929,307.51,481.091,307.51,481.26"/>
				<path style="fill:#818C9C;" d="M314.5,479.972c0,0.481-0.076,0.928-0.223,1.337c-0.154,0.407-0.369,0.758-0.654,1.049
					c-0.285,0.292-0.627,0.517-1.021,0.675c-0.398,0.153-0.842,0.233-1.336,0.233c-0.49,0-0.932-0.08-1.324-0.238
					c-0.391-0.156-0.73-0.385-1.016-0.677c-0.289-0.298-0.506-0.645-0.658-1.047c-0.143-0.402-0.219-0.847-0.219-1.332
					c0-0.49,0.078-0.94,0.225-1.348c0.15-0.408,0.367-0.758,0.648-1.045c0.283-0.289,0.621-0.511,1.02-0.669
					c0.402-0.155,0.842-0.233,1.324-0.233c0.49,0,0.938,0.078,1.336,0.238c0.4,0.157,0.74,0.384,1.027,0.675
					c0.287,0.296,0.502,0.643,0.65,1.044C314.426,479.041,314.5,479.483,314.5,479.972 M312.873,479.972
					c0-0.66-0.146-1.174-0.435-1.541c-0.289-0.373-0.682-0.555-1.172-0.555c-0.316,0-0.596,0.082-0.838,0.245
					c-0.242,0.164-0.426,0.406-0.557,0.728c-0.131,0.32-0.195,0.695-0.195,1.123c0,0.425,0.063,0.793,0.191,1.108
					c0.131,0.318,0.314,0.56,0.555,0.728c0.24,0.166,0.521,0.252,0.844,0.252c0.49,0,0.883-0.184,1.172-0.557
					C312.727,481.135,312.873,480.623,312.873,479.972"/>
				<path style="fill:#818C9C;" d="M320.68,480.091v2.153c0,0.342-0.076,0.595-0.23,0.767c-0.156,0.17-0.357,0.255-0.611,0.255
					c-0.246,0-0.445-0.085-0.594-0.255c-0.154-0.172-0.232-0.425-0.232-0.767v-2.58c0-0.409-0.014-0.727-0.041-0.953
					c-0.027-0.221-0.104-0.409-0.225-0.552c-0.123-0.147-0.318-0.22-0.582-0.22c-0.531,0-0.879,0.182-1.047,0.551
					c-0.168,0.359-0.254,0.883-0.254,1.566v2.188c0,0.336-0.078,0.591-0.227,0.765c-0.156,0.17-0.353,0.257-0.602,0.257
					c-0.248,0-0.449-0.087-0.605-0.257c-0.156-0.174-0.234-0.429-0.234-0.765v-4.635c0-0.306,0.07-0.537,0.209-0.694
					c0.143-0.16,0.328-0.238,0.557-0.238c0.223,0,0.406,0.077,0.557,0.223c0.147,0.148,0.221,0.353,0.221,0.614v0.153
					c0.283-0.334,0.584-0.582,0.902-0.737c0.322-0.163,0.676-0.242,1.07-0.242c0.406,0,0.756,0.082,1.049,0.244
					c0.293,0.162,0.533,0.41,0.725,0.735c0.273-0.33,0.566-0.577,0.881-0.737c0.313-0.161,0.658-0.242,1.039-0.242
					c0.439,0,0.824,0.09,1.145,0.262c0.318,0.174,0.559,0.426,0.717,0.748c0.137,0.295,0.205,0.755,0.205,1.385v3.162
					c0,0.342-0.074,0.595-0.229,0.767c-0.154,0.17-0.359,0.255-0.611,0.255c-0.246,0-0.445-0.087-0.602-0.257
					c-0.158-0.174-0.236-0.429-0.236-0.765v-2.725c0-0.35-0.014-0.627-0.043-0.836c-0.029-0.211-0.111-0.388-0.238-0.529
					c-0.133-0.142-0.332-0.215-0.596-0.215c-0.215,0-0.416,0.066-0.609,0.193c-0.191,0.123-0.342,0.298-0.451,0.507
					C320.74,478.913,320.68,479.397,320.68,480.091"/>
			</g>
			<g>
				<path style="fill:#818C9C;" d="M245.275,479.58c0-0.004,0-0.007,0-0.012C245.275,479.573,245.275,479.576,245.275,479.58z"/>
				<path style="fill:#818C9C;" d="M245.357,480.098c0.002,0,0.002,0,0.002,0c-0.031-0.147-0.055-0.294-0.074-0.438
					C245.305,479.805,245.328,479.952,245.357,480.098z"/>
				<path style="fill:#818C9C;" d="M245.895,481.602c-0.004-0.007-0.008-0.014-0.012-0.021
					C245.887,481.588,245.891,481.595,245.895,481.602z"/>
				<path style="fill:#818C9C;" d="M245.842,481.501c-0.014-0.027-0.027-0.056-0.041-0.083
					C245.814,481.446,245.828,481.474,245.842,481.501z"/>
				<path style="fill:#818C9C;" d="M245.508,480.677c0.08,0.25,0.176,0.493,0.287,0.724c-0.113-0.235-0.207-0.479-0.285-0.724
					H245.508z"/>
				<path style="fill:#818C9C;" d="M251.545,473.372c0.314,0,0.545,0.025,0.809,0.069l0.076-0.477c0,0-0.732-0.225-1.693-0.146
					l-0.074-0.259c0.299-0.063,0.523-0.329,0.523-0.647c0-0.363-0.297-0.658-0.66-0.658c-0.365,0-0.66,0.295-0.66,0.658
					c0,0.318,0.225,0.584,0.521,0.647l0.084,0.289c-1.021,0.14-1.834,0.538-1.834,0.538l0.145,0.44
					c0.617-0.206,1.152-0.331,1.639-0.384C250.896,473.395,251.254,473.372,251.545,473.372z"/>
				<path style="fill:#818C9C;" d="M245.881,475.782l0.004-0.005c0.023-0.03,0.047-0.06,0.07-0.088l-0.195-0.142l-0.305-0.223
					c-0.018,0.023-0.496,0.465-0.875,1.279c-0.016-0.026-0.035-0.051-0.057-0.074c-0.113-0.124-0.271-0.188-0.473-0.184
					c-0.002,0-0.006,0-0.01,0c-0.125,0-0.211-0.042-0.266-0.093c0.055-0.07,0.088-0.159,0.088-0.258
					c0-0.229-0.186-0.418-0.418-0.418c-0.23,0-0.418,0.189-0.418,0.418c0,0.231,0.188,0.418,0.418,0.418
					c0.037,0,0.07-0.006,0.105-0.013c0.102,0.114,0.266,0.213,0.504,0.209c0.123-0.001,0.213,0.03,0.273,0.097
					c0.068,0.076,0.092,0.186,0.1,0.268c0,0,0,0.002-0.002,0.002c-0.271,0.744-0.195,1.669-0.195,1.669l0.662,0.026
					c0.014-0.338,0.061-0.927,0.232-1.394C245.453,476.373,245.865,475.807,245.881,475.782z"/>
				<path style="fill:#818C9C;" d="M257.291,473.925c-0.228,0-0.416,0.186-0.416,0.418c0,0.036,0.004,0.07,0.014,0.103
					c-0.115,0.103-0.215,0.268-0.211,0.507c0.002,0.123-0.029,0.212-0.096,0.273c-0.053,0.047-0.119,0.072-0.184,0.088
					c-0.494-0.689-1.098-1.108-1.098-1.108l-0.475,0.508c0.357,0.326,0.725,0.733,1.078,1.243c0.248,0.352,0.5,0.806,0.711,1.259
					l0.639-0.305c0,0-0.291-0.722-0.703-1.368c0.072-0.025,0.145-0.064,0.207-0.121c0.125-0.112,0.188-0.271,0.184-0.473
					c-0.002-0.13,0.041-0.218,0.092-0.275c0.072,0.054,0.162,0.088,0.258,0.088c0.232,0,0.42-0.188,0.42-0.417
					C257.711,474.111,257.523,473.925,257.291,473.925z"/>
				<path style="fill:#818C9C;" d="M255.633,479.674c-0.881,0.429-2.33,0.995-4.236,1.261c-0.748,0.103-1.473,0.142-2.141,0.142
					c-0.869,0-1.637-0.064-2.227-0.139c-0.672-0.086-1.197-0.19-1.52-0.262c0.078,0.244,0.172,0.488,0.285,0.724
					c0.002,0.006,0.004,0.013,0.006,0.018c0.014,0.027,0.027,0.056,0.041,0.083c0.014,0.027,0.027,0.055,0.041,0.079
					c0.004,0.008,0.008,0.015,0.012,0.021c0.189,0.355,0.416,0.684,0.674,0.967c0.9,0.984,1.816,1.14,1.824,1.142l0.016,0.002
					l0.014,0.005c0.008,0.003,0.82,0.265,2.055,0.265c1.215,0,2.408-0.245,3.543-0.729c0.844-0.431,1.639-1.084,2.033-1.668
					c0.305-0.45,0.527-0.932,0.656-1.433c0.07-0.266,0.125-0.692,0.092-1.14C256.553,479.178,256.162,479.415,255.633,479.674z"/>
				<path style="fill:#818C9C;" d="M246.164,475.992c-0.025,0.037-0.406,0.577-0.709,1.407c-0.227,0.621-0.215,1.525-0.215,1.536
					v0.002c0,0.212,0.01,0.423,0.035,0.631c0,0.005,0,0.008,0,0.012c0.004,0.026,0.008,0.053,0.01,0.079
					c0.02,0.145,0.043,0.291,0.074,0.438c0.438,0.111,3.047,0.72,5.965,0.313c1.828-0.255,3.217-0.795,4.059-1.204
					c0.701-0.339,1.15-0.647,1.324-0.772c-0.174-0.643-0.65-1.649-1.088-2.278c-1.254-1.79-2.604-2.249-3.297-2.363
					c-0.264-0.044-0.477-0.068-0.777-0.068c-0.279,0-0.625,0.022-1.088,0.071c-0.465,0.048-0.98,0.17-1.582,0.372
					c-0.842,0.282-1.604,0.725-2.203,1.279l-0.02,0.018C246.563,475.548,246.377,475.72,246.164,475.992z M253.828,475.575
					c0.6,0,1.088,0.488,1.088,1.089c0,0.6-0.488,1.089-1.088,1.089s-1.088-0.488-1.088-1.089
					C252.74,476.064,253.229,475.575,253.828,475.575z M248.68,475.531c0.973,0,1.76,0.789,1.76,1.761
					c0,0.971-0.787,1.758-1.76,1.758c-0.971,0-1.758-0.787-1.758-1.758C246.922,476.32,247.709,475.531,248.68,475.531z"/>
			</g>
		</g>
	</g>
</g>
</svg>
